<svg width="123" height="109" viewBox="0 0 123 109" fill="none" xmlns="http://www.w3.org/2000/svg">
    <path d="M47.7048 109C44.0738 109 40.5915 107.565 38.0241 105.009C35.4566 102.454 34.0142 98.9886 34.0142 95.375C34.0142 91.7614 35.4566 88.2959 38.0241 85.7407C40.5915 83.1855 44.0738 81.75 47.7048 81.75C51.3357 81.75 54.818 83.1855 57.3855 85.7407C59.9529 88.2959 61.3953 91.7614 61.3953 95.375C61.3953 98.9886 59.9529 102.454 57.3855 105.009C54.818 107.565 51.3357 109 47.7048 109ZM95.6218 109C91.9908 109 88.5086 107.565 85.9411 105.009C83.3736 102.454 81.9312 98.9886 81.9312 95.375C81.9312 91.7614 83.3736 88.2959 85.9411 85.7407C88.5086 83.1855 91.9908 81.75 95.6218 81.75C99.2528 81.75 102.735 83.1855 105.302 85.7407C107.87 88.2959 109.312 91.7614 109.312 95.375C109.312 98.9886 107.87 102.454 105.302 105.009C102.735 107.565 99.2528 109 95.6218 109ZM6.37288 13.1004C4.66403 13.0456 3.04361 12.3314 1.85429 11.109C0.664973 9.88661 0 8.25177 0 6.55022C0 4.84867 0.664973 3.21383 1.85429 1.99141C3.04361 0.768997 4.66403 0.054853 6.37288 0H14.2518C20.4263 0 25.7656 4.26463 27.1073 10.2596L35.6844 48.6957C37.0261 54.6907 42.3654 58.9554 48.5399 58.9554H99.9617L109.833 19.6472H45.8634C44.1706 19.5704 42.5728 18.847 41.4022 17.6277C40.2316 16.4084 39.5784 14.7868 39.5784 13.1004C39.5784 11.414 40.2316 9.79253 41.4022 8.57318C42.5728 7.35383 44.1706 6.6305 45.8634 6.55362H109.833C111.834 6.55304 113.809 7.00651 115.607 7.87957C117.406 8.75263 118.981 10.0223 120.212 11.592C121.444 13.1618 122.299 14.9903 122.714 16.9386C123.129 18.8868 123.092 20.9036 122.606 22.8355L112.735 62.13C112.023 64.9653 110.38 67.4825 108.065 69.281C105.751 71.0796 102.898 72.0563 99.9617 72.0558H48.5399C42.5488 72.0566 36.7367 70.0238 32.0634 66.2931C27.39 62.5624 24.135 57.357 22.8358 51.5366L14.2518 13.1004H6.37288Z" fill="#FEC630"/>
    </svg>
    