<svg width="118" height="134" viewBox="0 0 118 134" fill="none" xmlns="http://www.w3.org/2000/svg">
    <path fill-rule="evenodd" clip-rule="evenodd" d="M114.25 98.5V43.375L74.875 4H35.5C31.3228 4 27.3168 5.65937 24.3631 8.61307C21.4094 11.5668 19.75 15.5728 19.75 19.75V98.5C19.75 102.677 21.4094 106.683 24.3631 109.637C27.3168 112.591 31.3228 114.25 35.5 114.25H98.5C102.677 114.25 106.683 112.591 109.637 109.637C112.591 106.683 114.25 102.677 114.25 98.5Z" stroke="#FEC630" stroke-width="7" stroke-linecap="round" stroke-linejoin="round"/>
    <path d="M67 35.5V67H90.625" stroke="#FEC630" stroke-width="7" stroke-linecap="round" stroke-linejoin="round"/>
    <path d="M19.75 19.75C15.5728 19.75 11.5668 21.4094 8.61307 24.3631C5.65937 27.3168 4 31.3228 4 35.5V114.25C4 118.427 5.65937 122.433 8.61307 125.387C11.5668 128.341 15.5728 130 19.75 130H82.75C86.9272 130 90.9332 128.341 93.8869 125.387C96.8406 122.433 98.5 118.427 98.5 114.25" stroke="#FEC630" stroke-width="7" stroke-linecap="round" stroke-linejoin="round"/>
    </svg>
    