<svg width="212" height="315" xmlns="http://www.w3.org/2000/svg" xmlns:xlink="http://www.w3.org/1999/xlink" xmlns:svgjs="http://svgjs.com/svgjs" viewBox="81 93 212 315"><svg width="30" height="165" xmlns="http://www.w3.org/2000/svg" xmlns:xlink="http://www.w3.org/1999/xlink" xmlns:svgjs="http://svgjs.com/svgjs" viewBox="0.264 0 29.472 165" fill="#fc6011" x="239" y="159"><svg xmlns="http://www.w3.org/2000/svg" xmlns:xlink="http://www.w3.org/1999/xlink" width="30" height="165" viewBox="0.468 0.174 29.272 163.878"><path paint-order="stroke fill markers" fill-rule="evenodd" d="M24.01 56.672a13.665 13.665 0 0 0-4.49 11.004l5.309 83.506s1.574 12.87-9.723 12.87-9.723-12.87-9.723-12.87l5.293-83.506a13.649 13.649 0 0 0-4.49-11.004l-1.204-1.08A13.652 13.652 0 0 1 .584 43.679L6.062 1.439A1.476 1.476 0 0 1 7.512.174 1.46 1.46 0 0 1 8.98 1.608l.669 39.766c.013.86.714 1.548 1.573 1.548h.736c.87 0 1.575-.705 1.575-1.574v-39.6a1.575 1.575 0 0 1 3.147 0v39.6c0 .869.706 1.574 1.575 1.574h.737c.858 0 1.559-.689 1.573-1.548l.669-39.766c0-.802.663-1.434 1.45-1.434.741 0 1.358.54 1.45 1.265l5.495 42.239a13.7 13.7 0 0 1-4.414 11.915l-1.204 1.08z"/></svg></svg><svg width="8" height="9" xmlns="http://www.w3.org/2000/svg" xmlns:xlink="http://www.w3.org/1999/xlink" xmlns:svgjs="http://svgjs.com/svgjs" viewBox="0 0.501 8 7.999" fill="#fc6011" x="231" y="123"><svg xmlns="http://www.w3.org/2000/svg" xmlns:xlink="http://www.w3.org/1999/xlink" width="8" height="9" viewBox="0.283 0.918 7.578 7.577"><path paint-order="stroke fill markers" fill-rule="evenodd" d="M5.779 4.71L7.86 6.798 6.163 8.494l-2.087-2.08L2 8.493.297 6.797 2.38 4.71.283 2.615 1.98.918l2.096 2.096L6.163.932 7.86 2.635 5.78 4.71z"/></svg></svg><svg width="11" height="11" xmlns="http://www.w3.org/2000/svg" xmlns:xlink="http://www.w3.org/1999/xlink" xmlns:svgjs="http://svgjs.com/svgjs" fill="#fc6011" x="241" y="104"><svg xmlns="http://www.w3.org/2000/svg" xmlns:xlink="http://www.w3.org/1999/xlink" width="11" height="11" viewBox="0.723 0.763 9.298 9.298"><path paint-order="stroke fill markers" fill-rule="evenodd" d="M5.374 10.061a4.653 4.653 0 0 1-4.65-4.646A4.656 4.656 0 0 1 5.373.763a4.656 4.656 0 0 1 4.647 4.652 4.652 4.652 0 0 1-4.647 4.646zM2.46 5.415a2.913 2.913 0 0 0 5.826 0A2.918 2.918 0 0 0 5.374 2.5 2.917 2.917 0 0 0 2.46 5.415z"/></svg></svg><svg width="10" height="10" xmlns="http://www.w3.org/2000/svg" xmlns:xlink="http://www.w3.org/1999/xlink" xmlns:svgjs="http://svgjs.com/svgjs" fill="#fecfb7" x="254" y="119"><svg xmlns="http://www.w3.org/2000/svg" xmlns:xlink="http://www.w3.org/1999/xlink" width="10" height="10" viewBox="0.162 0.412 9.01 9.01"><path paint-order="stroke fill markers" fill-rule="evenodd" d="M.162 5.742l3.68-5.33 5.33 3.68-3.68 5.33-5.33-3.68z"/></svg></svg><svg width="9" height="9" xmlns="http://www.w3.org/2000/svg" xmlns:xlink="http://www.w3.org/1999/xlink" xmlns:svgjs="http://svgjs.com/svgjs" viewBox="0.001 0 8.999 9" fill="#fecfb7" x="245" y="134"><svg xmlns="http://www.w3.org/2000/svg" xmlns:xlink="http://www.w3.org/1999/xlink" width="9" height="9" viewBox="0.335 0.539 7.899 7.901"><path paint-order="stroke fill markers" fill-rule="evenodd" d="M.335 4.49a3.95 3.95 0 1 1 7.9-.002 3.95 3.95 0 0 1-7.9.001z"/></svg></svg><svg width="6" height="7" xmlns="http://www.w3.org/2000/svg" xmlns:xlink="http://www.w3.org/1999/xlink" xmlns:svgjs="http://svgjs.com/svgjs" viewBox="0 0.5 6 6.001" fill="#fc6011" x="271" y="131"><svg xmlns="http://www.w3.org/2000/svg" xmlns:xlink="http://www.w3.org/1999/xlink" width="6" height="7" viewBox="0.525 0.959 5.399 5.4"><path paint-order="stroke fill markers" fill-rule="evenodd" d="M.525 3.659a2.7 2.7 0 1 1 5.4-.001 2.7 2.7 0 0 1-5.4 0z"/></svg></svg><svg width="6" height="6" xmlns="http://www.w3.org/2000/svg" xmlns:xlink="http://www.w3.org/1999/xlink" xmlns:svgjs="http://svgjs.com/svgjs" fill="#fecfb7" x="95" y="255"><svg xmlns="http://www.w3.org/2000/svg" xmlns:xlink="http://www.w3.org/1999/xlink" width="6" height="6" viewBox="0.797 0.249 5.154 5.154"><path paint-order="stroke fill markers" fill-rule="evenodd" d="M.797 2.826a2.577 2.577 0 1 1 5.154 0 2.577 2.577 0 0 1-5.154 0z"/></svg></svg><svg width="10" height="9" xmlns="http://www.w3.org/2000/svg" xmlns:xlink="http://www.w3.org/1999/xlink" xmlns:svgjs="http://svgjs.com/svgjs" viewBox="0.5 0 9 9" fill="#fc6011" x="90" y="238"><svg xmlns="http://www.w3.org/2000/svg" xmlns:xlink="http://www.w3.org/1999/xlink" width="10" height="9" viewBox="0.578 0.396 8.594 8.594"><path paint-order="stroke fill markers" fill-rule="evenodd" d="M.578 3.906L5.662.396l3.51 5.084-5.084 3.51-3.51-5.084z"/></svg></svg><svg width="7" height="7" xmlns="http://www.w3.org/2000/svg" xmlns:xlink="http://www.w3.org/1999/xlink" xmlns:svgjs="http://svgjs.com/svgjs" viewBox="0.001 0 6.998 7" fill="#fc6011" x="81" y="253"><svg xmlns="http://www.w3.org/2000/svg" xmlns:xlink="http://www.w3.org/1999/xlink" width="7" height="7" viewBox="0.999 0.911 5.608 5.609"><path paint-order="stroke fill markers" fill-rule="evenodd" d="M1 3.716a2.805 2.805 0 1 1 5.61 0 2.805 2.805 0 0 1-5.61 0z"/></svg></svg><svg width="15" height="114" xmlns="http://www.w3.org/2000/svg" xmlns:xlink="http://www.w3.org/1999/xlink" xmlns:svgjs="http://svgjs.com/svgjs" viewBox="0.349 0 14.302 114" fill="#fc6011" x="268" y="218"><svg xmlns="http://www.w3.org/2000/svg" xmlns:xlink="http://www.w3.org/1999/xlink" width="15" height="114" viewBox="0.74 0.176 14.168 112.932"><path paint-order="stroke fill markers" fill-rule="evenodd" d="M.747 6.39l4.137 103.94c.063 1.577 1.022 2.82 2.144 2.776.95-.038 1.736-.997 1.89-2.31l5.917-49.69c.387-3.243-.795-6.518-2.905-8.052-1.847-1.343-3.007-4.04-2.979-6.929L9.336 6.47C9.37 2.97 7.285.08 4.799.18 2.428.272.614 3.053.747 6.39z"/></svg></svg><svg width="94" height="194" xmlns="http://www.w3.org/2000/svg" xmlns:xlink="http://www.w3.org/1999/xlink" xmlns:svgjs="http://svgjs.com/svgjs" viewBox="0.325 0 93.349 194" fill="#29293d" x="132" y="141"><svg xmlns="http://www.w3.org/2000/svg" xmlns:xlink="http://www.w3.org/1999/xlink" width="94" height="194" viewBox="0.672 0.424 93.039 193.356"><path paint-order="stroke fill markers" fill-rule="evenodd" d="M80.742.424H13.634C6.512.424.672 6.264.672 13.393v167.423c0 7.135 5.84 12.964 12.962 12.964h67.108c7.127 0 12.969-5.829 12.969-12.964V13.393c0-7.129-5.842-12.97-12.97-12.97zM81 6.096c4.172 0 7.58 3.416 7.58 7.588V174.16c0 4.173-3.408 7.581-7.58 7.581H13.68c-4.173 0-7.588-3.408-7.588-7.58V13.683c0-4.172 3.415-7.588 7.588-7.588H81z"/></svg></svg><svg width="95" height="195" xmlns="http://www.w3.org/2000/svg" xmlns:xlink="http://www.w3.org/1999/xlink" xmlns:svgjs="http://svgjs.com/svgjs" viewBox="0.423 0 94.154 195" fill="#ccc" x="132" y="141"><svg xmlns="http://www.w3.org/2000/svg" xmlns:xlink="http://www.w3.org/1999/xlink" width="95" height="195" viewBox="0.354 0.106 93.666 193.99"><path paint-order="stroke fill markers" fill-rule="evenodd" d="M80.74.106H13.634C6.311.106.354 6.07.354 13.393v167.423c0 7.323 5.957 13.28 13.28 13.28H80.74c7.323 0 13.28-5.957 13.28-13.28V13.393C94.02 6.07 88.063.106 80.74.106zm12.653 180.71c0 6.974-5.68 12.646-12.653 12.646H13.634c-6.973 0-12.647-5.672-12.647-12.646V13.393C.987 6.419 6.661.74 13.634.74H80.74c6.973 0 12.653 5.68 12.653 12.653v167.423z"/></svg></svg><svg width="83" height="176" xmlns="http://www.w3.org/2000/svg" xmlns:xlink="http://www.w3.org/1999/xlink" xmlns:svgjs="http://svgjs.com/svgjs" viewBox="0.172 0 82.656 176" fill="#fecfb7" x="138" y="147"><svg xmlns="http://www.w3.org/2000/svg" xmlns:xlink="http://www.w3.org/1999/xlink" width="83" height="176" viewBox="0.091 0.096 82.489 175.645"><path paint-order="stroke fill markers" fill-rule="evenodd" d="M82.58 7.684V168.16c0 4.172-3.41 7.581-7.58 7.581H7.68c-4.173 0-7.589-3.409-7.589-7.58V7.683C.091 3.512 3.507.096 7.68.096H75c4.171 0 7.581 3.416 7.581 7.588z"/></svg></svg><svg width="5" height="5" xmlns="http://www.w3.org/2000/svg" xmlns:xlink="http://www.w3.org/1999/xlink" xmlns:svgjs="http://svgjs.com/svgjs" viewBox="0 0.001 5 4.999" fill="#3b414b" x="170" y="148"><svg xmlns="http://www.w3.org/2000/svg" xmlns:xlink="http://www.w3.org/1999/xlink" width="5" height="5" viewBox="0.221 0.26 3.946 3.945"><path paint-order="stroke fill markers" fill-rule="evenodd" d="M2.191.26a1.973 1.973 0 1 1-1.97 1.975c0-1.09.885-1.975 1.97-1.975z"/></svg></svg><svg width="5" height="4" xmlns="http://www.w3.org/2000/svg" xmlns:xlink="http://www.w3.org/1999/xlink" xmlns:svgjs="http://svgjs.com/svgjs" viewBox="0.4 0 4.2 4" fill="#515760" x="184" y="148"><svg xmlns="http://www.w3.org/2000/svg" xmlns:xlink="http://www.w3.org/1999/xlink" width="5" height="4" viewBox="0.556 0.364 3.532 3.364"><path paint-order="stroke fill markers" fill-rule="evenodd" d="M4.088 2.046c0 .925-.789 1.682-1.766 1.682-.97 0-1.766-.757-1.766-1.682 0-.925.796-1.682 1.766-1.682.977 0 1.766.757 1.766 1.682z"/></svg></svg><svg width="7" height="4" xmlns="http://www.w3.org/2000/svg" xmlns:xlink="http://www.w3.org/1999/xlink" xmlns:svgjs="http://svgjs.com/svgjs" viewBox="0 0.225 7 3.55" fill="#1a1f29" x="176" y="148"><svg xmlns="http://www.w3.org/2000/svg" xmlns:xlink="http://www.w3.org/1999/xlink" width="7" height="4" viewBox="0.433 0.26 5.825 2.954"><path paint-order="stroke fill markers" fill-rule="evenodd" d="M6.258 1.239v.997a.975.975 0 0 1-.979.978H1.411a.979.979 0 0 1-.978-.978V1.24c0-.537.442-.98.978-.98H5.28a.98.98 0 0 1 .979.98z"/></svg></svg><svg width="31" height="8" xmlns="http://www.w3.org/2000/svg" xmlns:xlink="http://www.w3.org/1999/xlink" xmlns:svgjs="http://svgjs.com/svgjs" viewBox="0 0.315 31 7.37" fill="#3e394f" x="164" y="147"><svg xmlns="http://www.w3.org/2000/svg" xmlns:xlink="http://www.w3.org/1999/xlink" width="31" height="8" viewBox="0.504 0.099 29.791 7.082"><path paint-order="stroke fill markers" fill-rule="evenodd" d="M.504.099h29.79s-3.206.555-3.231 3.565c-.032 3.006-2.557 3.517-4.822 3.517H15.4 8.557c-2.266 0-4.79-.51-4.823-3.517C3.71.654.504.1.504.1zm16.775 1.16h-3.868a.984.984 0 0 0-.978.98v.997c0 .543.44.978.978.978h3.868a.975.975 0 0 0 .979-.978V2.24a.98.98 0 0 0-.979-.98zm-7.112 1.977a1.974 1.974 0 1 0 0 0zm12.155-1.868c-.972 0-1.766.75-1.766 1.678 0 .928.794 1.68 1.766 1.68.979 0 1.768-.752 1.768-1.68 0-.927-.789-1.678-1.768-1.678z"/></svg></svg><svg width="87" height="173" xmlns="http://www.w3.org/2000/svg" xmlns:xlink="http://www.w3.org/1999/xlink" xmlns:svgjs="http://svgjs.com/svgjs" viewBox="0.005 0 86.991 173" fill="#3e394f" x="136" y="143"><svg xmlns="http://www.w3.org/2000/svg" xmlns:xlink="http://www.w3.org/1999/xlink" width="87" height="173" viewBox="0.325 0.856 86.138 171.304"><path paint-order="stroke fill markers" fill-rule="evenodd" d="M86.464 10.999V172.16H84.58V11.684c0-4.172-3.408-7.588-7.58-7.588H9.68c-4.173 0-7.589 3.416-7.589 7.588V172.16H.325V11C.325 5.416 4.9.856 10.467.856h65.854c5.582 0 10.143 4.56 10.143 10.143z"/></svg></svg><svg width="87" height="18" xmlns="http://www.w3.org/2000/svg" xmlns:xlink="http://www.w3.org/1999/xlink" xmlns:svgjs="http://svgjs.com/svgjs" viewBox="0 0.327 87 17.346" fill="#3e394f" x="136" y="315"><svg xmlns="http://www.w3.org/2000/svg" xmlns:xlink="http://www.w3.org/1999/xlink" width="87" height="18" viewBox="0.325 0.16 86.138 17.174"><path paint-order="stroke fill markers" fill-rule="evenodd" d="M86.464.16v7.032c0 5.576-4.56 10.142-10.143 10.142H10.467C4.9 17.334.325 12.768.325 7.192V.16h1.766c0 4.172 3.416 7.581 7.59 7.581H77c4.172 0 7.58-3.409 7.58-7.58h1.884z"/></svg></svg><svg width="90" height="206" xmlns="http://www.w3.org/2000/svg" xmlns:xlink="http://www.w3.org/1999/xlink" xmlns:svgjs="http://svgjs.com/svgjs" viewBox="0.07 0 89.86 206" fill="#ffa9a9" x="203" y="202"><svg xmlns="http://www.w3.org/2000/svg" xmlns:xlink="http://www.w3.org/1999/xlink" width="90" height="206" viewBox="0.175 0.231 89.437 205.031"><path paint-order="stroke fill markers" fill-rule="evenodd" d="M8.76 165.051s-25.924-61.818 12.328-96.808c0 0-10.153-58.556 0-66.714C31.24-6.628 38.128 22.74 54.445 115.74l35.122 47.861.045 41.661H26.471L8.76 165.052z"/></svg></svg><svg width="27" height="17" xmlns="http://www.w3.org/2000/svg" xmlns:xlink="http://www.w3.org/1999/xlink" xmlns:svgjs="http://svgjs.com/svgjs" viewBox="0.236 0 26.528 17" fill="#ffa9a9" x="114" y="242"><svg xmlns="http://www.w3.org/2000/svg" xmlns:xlink="http://www.w3.org/1999/xlink" width="27" height="17" viewBox="0.952 0.325 25.744 16.498"><path paint-order="stroke fill markers" fill-rule="evenodd" d="M18.447 16.823H9.201c-4.537 0-8.249-3.712-8.249-8.25C.952 4.038 4.664.326 9.201.326h9.246c4.537 0 8.25 3.712 8.25 8.249 0 4.537-3.713 8.249-8.25 8.249z"/></svg></svg><svg width="29" height="21" xmlns="http://www.w3.org/2000/svg" xmlns:xlink="http://www.w3.org/1999/xlink" xmlns:svgjs="http://svgjs.com/svgjs" viewBox="0 0.537 29 19.926" fill="#ffa9a9" x="112" y="258"><svg xmlns="http://www.w3.org/2000/svg" xmlns:xlink="http://www.w3.org/1999/xlink" width="29" height="21" viewBox="0.234 0.823 28.099 19.307"><path paint-order="stroke fill markers" fill-rule="evenodd" d="M18.678 20.13H9.886c-5.309 0-9.652-4.344-9.652-9.654S4.577.823 9.886.823h8.792c5.31 0 9.655 4.343 9.655 9.653 0 5.31-4.346 9.654-9.655 9.654z"/></svg></svg><svg width="29" height="20" xmlns="http://www.w3.org/2000/svg" xmlns:xlink="http://www.w3.org/1999/xlink" xmlns:svgjs="http://svgjs.com/svgjs" viewBox="0 0.037 29 19.926" fill="#ffa9a9" x="112" y="278"><svg xmlns="http://www.w3.org/2000/svg" xmlns:xlink="http://www.w3.org/1999/xlink" width="29" height="20" viewBox="0.596 0.13 28.1 19.308"><path paint-order="stroke fill markers" fill-rule="evenodd" d="M19.043 19.437h-8.794c-5.309 0-9.653-4.344-9.653-9.654C.596 4.474 4.94.13 10.249.13h8.794c5.308 0 9.653 4.344 9.653 9.653 0 5.31-4.345 9.654-9.653 9.654z"/></svg></svg><svg width="27" height="17" xmlns="http://www.w3.org/2000/svg" xmlns:xlink="http://www.w3.org/1999/xlink" xmlns:svgjs="http://svgjs.com/svgjs" viewBox="0.237 0 26.527 17" fill="#ffa9a9" x="115" y="297"><svg xmlns="http://www.w3.org/2000/svg" xmlns:xlink="http://www.w3.org/1999/xlink" width="27" height="17" viewBox="0.36 0.436 25.743 16.498"><path paint-order="stroke fill markers" fill-rule="evenodd" d="M17.855 16.934H8.609C4.072 16.934.36 13.222.36 8.685.36 4.148 4.072.436 8.61.436h9.245c4.537 0 8.249 3.712 8.249 8.25 0 4.536-3.712 8.248-8.25 8.248z"/></svg></svg><svg width="40" height="39" xmlns="http://www.w3.org/2000/svg" xmlns:xlink="http://www.w3.org/1999/xlink" xmlns:svgjs="http://svgjs.com/svgjs" viewBox="121 164 40 39" x="121" y="164"><svg width="40" height="39" xmlns="http://www.w3.org/2000/svg" xmlns:xlink="http://www.w3.org/1999/xlink" xmlns:svgjs="http://svgjs.com/svgjs" viewBox="121 164 40 39" x="121" y="164"><svg width="40" height="39" xmlns="http://www.w3.org/2000/svg" xmlns:xlink="http://www.w3.org/1999/xlink" xmlns:svgjs="http://svgjs.com/svgjs" viewBox="121 164 40 39" x="121" y="164"><svg width="40" height="39" xmlns="http://www.w3.org/2000/svg" xmlns:xlink="http://www.w3.org/1999/xlink" xmlns:svgjs="http://svgjs.com/svgjs" viewBox="0.5 0 38.999 39" fill="#fc6011" x="121" y="164"><svg xmlns="http://www.w3.org/2000/svg" xmlns:xlink="http://www.w3.org/1999/xlink" width="40" height="39" viewBox="0.978 0.451 38.309 38.309"><path paint-order="stroke fill markers" fill-rule="evenodd" d="M31.927 38.76H8.337c-4.047 0-7.36-3.31-7.36-7.359V7.811c0-4.048 3.313-7.36 7.36-7.36h23.59c4.048 0 7.36 3.312 7.36 7.36v23.59c0 4.048-3.312 7.36-7.36 7.36z"/></svg></svg></svg></svg></svg><svg width="39" height="39" xmlns="http://www.w3.org/2000/svg" xmlns:xlink="http://www.w3.org/1999/xlink" xmlns:svgjs="http://svgjs.com/svgjs" viewBox="164 163 39 39" x="164" y="163"><svg width="39" height="39" xmlns="http://www.w3.org/2000/svg" xmlns:xlink="http://www.w3.org/1999/xlink" xmlns:svgjs="http://svgjs.com/svgjs" viewBox="164 163 39 39" x="164" y="163"><svg width="39" height="39" xmlns="http://www.w3.org/2000/svg" xmlns:xlink="http://www.w3.org/1999/xlink" xmlns:svgjs="http://svgjs.com/svgjs" viewBox="164 163 39 39" x="164" y="163"><svg width="39" height="39" xmlns="http://www.w3.org/2000/svg" xmlns:xlink="http://www.w3.org/1999/xlink" xmlns:svgjs="http://svgjs.com/svgjs" fill="#fc6011" x="164" y="163"><svg xmlns="http://www.w3.org/2000/svg" xmlns:xlink="http://www.w3.org/1999/xlink" width="39" height="39" viewBox="0.352 0.656 38.31 38.31"><path paint-order="stroke fill markers" fill-rule="evenodd" d="M31.302 38.966H7.712c-4.048 0-7.36-3.312-7.36-7.359V8.016c0-4.048 3.312-7.36 7.36-7.36h23.59c4.048 0 7.36 3.312 7.36 7.36v23.591c0 4.047-3.312 7.359-7.36 7.359z"/></svg></svg></svg></svg></svg><svg width="39" height="40" xmlns="http://www.w3.org/2000/svg" xmlns:xlink="http://www.w3.org/1999/xlink" xmlns:svgjs="http://svgjs.com/svgjs" viewBox="121 211 39 40" x="121" y="211"><svg width="39" height="40" xmlns="http://www.w3.org/2000/svg" xmlns:xlink="http://www.w3.org/1999/xlink" xmlns:svgjs="http://svgjs.com/svgjs" viewBox="121 211 39 40" x="121" y="211"><svg width="39" height="40" xmlns="http://www.w3.org/2000/svg" xmlns:xlink="http://www.w3.org/1999/xlink" xmlns:svgjs="http://svgjs.com/svgjs" viewBox="121 211 39 40" x="121" y="211"><svg width="39" height="40" xmlns="http://www.w3.org/2000/svg" xmlns:xlink="http://www.w3.org/1999/xlink" xmlns:svgjs="http://svgjs.com/svgjs" viewBox="0 0.5 39 39" fill="#fc6011" x="121" y="211"><svg xmlns="http://www.w3.org/2000/svg" xmlns:xlink="http://www.w3.org/1999/xlink" width="39" height="40" viewBox="0.102 0.885 38.31 38.309"><path paint-order="stroke fill markers" fill-rule="evenodd" d="M31.054 39.194H7.462c-4.048 0-7.36-3.312-7.36-7.36V8.245c0-4.047 3.312-7.36 7.36-7.36h23.592c4.048 0 7.358 3.313 7.358 7.36v23.59c0 4.048-3.31 7.36-7.358 7.36z"/></svg></svg></svg></svg></svg><svg width="39" height="39" xmlns="http://www.w3.org/2000/svg" xmlns:xlink="http://www.w3.org/1999/xlink" xmlns:svgjs="http://svgjs.com/svgjs" viewBox="163 211 39 39" x="163" y="211"><svg width="39" height="39" xmlns="http://www.w3.org/2000/svg" xmlns:xlink="http://www.w3.org/1999/xlink" xmlns:svgjs="http://svgjs.com/svgjs" viewBox="163 211 39 39" x="163" y="211"><svg width="39" height="39" xmlns="http://www.w3.org/2000/svg" xmlns:xlink="http://www.w3.org/1999/xlink" xmlns:svgjs="http://svgjs.com/svgjs" viewBox="163 211 39 39" x="163" y="211"><svg width="39" height="39" xmlns="http://www.w3.org/2000/svg" xmlns:xlink="http://www.w3.org/1999/xlink" xmlns:svgjs="http://svgjs.com/svgjs" fill="#fc6011" x="163" y="211"><svg xmlns="http://www.w3.org/2000/svg" xmlns:xlink="http://www.w3.org/1999/xlink" width="39" height="39" viewBox="0.477 0.09 38.31 38.309"><path paint-order="stroke fill markers" fill-rule="evenodd" d="M31.428 38.4H7.837c-4.048 0-7.36-3.311-7.36-7.36V7.45c0-4.048 3.312-7.36 7.36-7.36h23.59c4.049 0 7.36 3.312 7.36 7.36v23.59c0 4.049-3.311 7.36-7.36 7.36z"/></svg></svg></svg></svg></svg><svg width="39" height="39" xmlns="http://www.w3.org/2000/svg" xmlns:xlink="http://www.w3.org/1999/xlink" xmlns:svgjs="http://svgjs.com/svgjs" viewBox="163 257 39 39" x="163" y="257"><svg width="39" height="39" xmlns="http://www.w3.org/2000/svg" xmlns:xlink="http://www.w3.org/1999/xlink" xmlns:svgjs="http://svgjs.com/svgjs" viewBox="163 257 39 39" x="163" y="257"><svg width="39" height="39" xmlns="http://www.w3.org/2000/svg" xmlns:xlink="http://www.w3.org/1999/xlink" xmlns:svgjs="http://svgjs.com/svgjs" viewBox="163 257 39 39" x="163" y="257"><svg width="39" height="39" xmlns="http://www.w3.org/2000/svg" xmlns:xlink="http://www.w3.org/1999/xlink" xmlns:svgjs="http://svgjs.com/svgjs" fill="#fc6011" x="163" y="257"><svg xmlns="http://www.w3.org/2000/svg" xmlns:xlink="http://www.w3.org/1999/xlink" width="39" height="39" viewBox="0.477 0.659 38.31 38.31"><path paint-order="stroke fill markers" fill-rule="evenodd" d="M31.428 38.97H7.837c-4.048 0-7.36-3.312-7.36-7.36V8.02c0-4.047 3.312-7.36 7.36-7.36h23.59c4.049 0 7.36 3.313 7.36 7.36v23.59c0 4.048-3.311 7.36-7.36 7.36z"/></svg></svg></svg></svg></svg><svg width="30" height="3" xmlns="http://www.w3.org/2000/svg" xmlns:xlink="http://www.w3.org/1999/xlink" xmlns:svgjs="http://svgjs.com/svgjs" viewBox="0 0.398 30 2.205" fill="#fff" x="167" y="284"><svg xmlns="http://www.w3.org/2000/svg" xmlns:xlink="http://www.w3.org/1999/xlink" width="30" height="3" viewBox="0.542 0.017 29.253 2.15"><path paint-order="stroke fill markers" fill-rule="evenodd" d="M.542.017h29.253v2.15H.542V.016z"/></svg></svg><svg width="6" height="6" xmlns="http://www.w3.org/2000/svg" xmlns:xlink="http://www.w3.org/1999/xlink" xmlns:svgjs="http://svgjs.com/svgjs" viewBox="0 0.005 6 5.99" fill="#fff" x="179" y="263"><svg xmlns="http://www.w3.org/2000/svg" xmlns:xlink="http://www.w3.org/1999/xlink" width="6" height="6" viewBox="0.461 0.267 4.775 4.768"><path paint-order="stroke fill markers" fill-rule="evenodd" d="M.461 2.65A2.394 2.394 0 0 1 2.852.267a2.384 2.384 0 1 1 0 4.768A2.39 2.39 0 0 1 .462 2.65z"/></svg></svg><svg width="29" height="14" xmlns="http://www.w3.org/2000/svg" xmlns:xlink="http://www.w3.org/1999/xlink" xmlns:svgjs="http://svgjs.com/svgjs" viewBox="0 0.189 29 13.623" fill="#fff" x="168" y="269"><svg xmlns="http://www.w3.org/2000/svg" xmlns:xlink="http://www.w3.org/1999/xlink" width="29" height="14" viewBox="0.476 0.416 27.755 13.038"><path paint-order="stroke fill markers" fill-rule="evenodd" d="M28.223 13.453H.495S-.623.018 14.17.425C23.066.668 26.35 5.31 27.543 8.983c.806 2.446.68 4.47.68 4.47z"/></svg></svg><svg width="35" height="45" xmlns="http://www.w3.org/2000/svg" xmlns:xlink="http://www.w3.org/1999/xlink" xmlns:svgjs="http://svgjs.com/svgjs" viewBox="0.249 0 34.501 45" fill="#edac4a" x="162" y="93"><svg xmlns="http://www.w3.org/2000/svg" xmlns:xlink="http://www.w3.org/1999/xlink" width="35" height="45" viewBox="0.632 1 33.534 43.738"><path paint-order="stroke fill markers" fill-rule="evenodd" d="M34.164 17.742c.203 12.885-16.732 26.996-16.732 26.996C-1.261 28.063.69 17.742.69 17.742.69 8.496 8.186 1 17.432 1c9.244 0 16.732 7.496 16.732 16.742zm-8.294 0a8.437 8.437 0 0 0-8.438-8.44 8.437 8.437 0 0 0-8.438 8.44c0 4.65 3.776 8.429 8.438 8.429 4.662 0 8.438-3.778 8.438-8.43z"/></svg></svg><svg width="86" height="86" xmlns="http://www.w3.org/2000/svg" xmlns:xlink="http://www.w3.org/1999/xlink" xmlns:svgjs="http://svgjs.com/svgjs" fill="#ffe1a4" x="95" y="147"><svg xmlns="http://www.w3.org/2000/svg" xmlns:xlink="http://www.w3.org/1999/xlink" width="86" height="86" viewBox="0.538 0.005 85.421 85.421"><path paint-order="stroke fill markers" fill-rule="evenodd" d="M85.96 42.716c0 23.577-19.115 42.71-42.712 42.71-23.594 0-42.71-19.133-42.71-42.71 0-23.595 19.116-42.71 42.71-42.71v42.71H85.96z"/></svg></svg><svg width="74" height="74" xmlns="http://www.w3.org/2000/svg" xmlns:xlink="http://www.w3.org/1999/xlink" xmlns:svgjs="http://svgjs.com/svgjs" viewBox="0 0.001 74 73.999" fill="#edac4a" x="101" y="153"><svg xmlns="http://www.w3.org/2000/svg" xmlns:xlink="http://www.w3.org/1999/xlink" width="74" height="74" viewBox="0.688 0.157 73.12 73.118"><path paint-order="stroke fill markers" fill-rule="evenodd" d="M73.808 36.716c0 20.18-16.362 36.56-36.56 36.56-20.198 0-36.56-16.38-36.56-36.56C.688 16.518 17.05.157 37.248.157v36.56h36.56z"/></svg></svg><svg width="13" height="13" xmlns="http://www.w3.org/2000/svg" xmlns:xlink="http://www.w3.org/1999/xlink" xmlns:svgjs="http://svgjs.com/svgjs" viewBox="0 0 13 12.999" fill="#f25c5c" x="118" y="164"><svg xmlns="http://www.w3.org/2000/svg" xmlns:xlink="http://www.w3.org/1999/xlink" width="13" height="13" viewBox="0.511 0.02 12.422 12.421"><path paint-order="stroke fill markers" fill-rule="evenodd" d="M12.933 6.23a6.211 6.211 0 1 1-12.423 0 6.211 6.211 0 0 1 12.423 0z"/></svg></svg><svg width="13" height="12" xmlns="http://www.w3.org/2000/svg" xmlns:xlink="http://www.w3.org/1999/xlink" xmlns:svgjs="http://svgjs.com/svgjs" viewBox="0.501 0 11.999 12" fill="#f25c5c" x="111" y="197"><svg xmlns="http://www.w3.org/2000/svg" xmlns:xlink="http://www.w3.org/1999/xlink" width="13" height="12" viewBox="0.789 0.497 11.485 11.486"><path paint-order="stroke fill markers" fill-rule="evenodd" d="M12.274 6.24A5.743 5.743 0 1 1 .79 6.241a5.743 5.743 0 0 1 11.485 0z"/></svg></svg><svg width="7" height="7" xmlns="http://www.w3.org/2000/svg" xmlns:xlink="http://www.w3.org/1999/xlink" xmlns:svgjs="http://svgjs.com/svgjs" viewBox="0.001 0 6.999 7" fill="#f25c5c" x="124" y="190"><svg xmlns="http://www.w3.org/2000/svg" xmlns:xlink="http://www.w3.org/1999/xlink" width="7" height="7" viewBox="0.721 0.988 5.487 5.488"><path paint-order="stroke fill markers" fill-rule="evenodd" d="M6.208 3.732a2.744 2.744 0 1 1-5.488 0 2.744 2.744 0 0 1 5.488 0z"/></svg></svg><svg width="9" height="9" xmlns="http://www.w3.org/2000/svg" xmlns:xlink="http://www.w3.org/1999/xlink" xmlns:svgjs="http://svgjs.com/svgjs" fill="#f25c5c" x="126" y="206"><svg xmlns="http://www.w3.org/2000/svg" xmlns:xlink="http://www.w3.org/1999/xlink" width="9" height="9" viewBox="0.593 0.558 7.785 7.784"><path paint-order="stroke fill markers" fill-rule="evenodd" d="M8.378 4.45a3.892 3.892 0 1 1-7.784 0 3.892 3.892 0 0 1 7.784 0z"/></svg></svg><svg width="9" height="9" xmlns="http://www.w3.org/2000/svg" xmlns:xlink="http://www.w3.org/1999/xlink" xmlns:svgjs="http://svgjs.com/svgjs" fill="#f25c5c" x="143" y="196"><svg xmlns="http://www.w3.org/2000/svg" xmlns:xlink="http://www.w3.org/1999/xlink" width="9" height="9" viewBox="0.948 0.477 7.657 7.657"><path paint-order="stroke fill markers" fill-rule="evenodd" d="M8.605 4.305a3.828 3.828 0 1 1-7.656.001 3.828 3.828 0 0 1 7.656-.001z"/></svg></svg><svg width="8" height="8" xmlns="http://www.w3.org/2000/svg" xmlns:xlink="http://www.w3.org/1999/xlink" xmlns:svgjs="http://svgjs.com/svgjs" viewBox="0.001 0 7.999 8" fill="#f25c5c" x="156" y="199"><svg xmlns="http://www.w3.org/2000/svg" xmlns:xlink="http://www.w3.org/1999/xlink" width="8" height="8" viewBox="0.837 0.793 6.764 6.765"><path paint-order="stroke fill markers" fill-rule="evenodd" d="M7.6 4.175a3.382 3.382 0 1 1-6.764.001 3.382 3.382 0 0 1 6.764 0z"/></svg></svg><svg width="37" height="36" xmlns="http://www.w3.org/2000/svg" xmlns:xlink="http://www.w3.org/1999/xlink" xmlns:svgjs="http://svgjs.com/svgjs" viewBox="0.5 0 36 36" fill="#ffe1a4" x="141" y="151"><svg xmlns="http://www.w3.org/2000/svg" xmlns:xlink="http://www.w3.org/1999/xlink" width="37" height="36" viewBox="0.652 0.204 35.73 35.73"><path paint-order="stroke fill markers" fill-rule="evenodd" d="M36.382 35.934H.652V.204c19.738 0 35.73 15.99 35.73 35.73z"/></svg></svg><svg width="32" height="31" xmlns="http://www.w3.org/2000/svg" xmlns:xlink="http://www.w3.org/1999/xlink" xmlns:svgjs="http://svgjs.com/svgjs" viewBox="0.499 0 31.002 31" fill="#edac4a" x="141" y="156"><svg xmlns="http://www.w3.org/2000/svg" xmlns:xlink="http://www.w3.org/1999/xlink" width="32" height="31" viewBox="0.652 0.349 30.586 30.584"><path paint-order="stroke fill markers" fill-rule="evenodd" d="M31.237 30.934H.652V.349c16.897 0 30.585 13.687 30.585 30.585z"/></svg></svg><svg width="11" height="11" xmlns="http://www.w3.org/2000/svg" xmlns:xlink="http://www.w3.org/1999/xlink" xmlns:svgjs="http://svgjs.com/svgjs" viewBox="0 0 11 10.999" fill="#f25c5c" x="148" y="163"><svg xmlns="http://www.w3.org/2000/svg" xmlns:xlink="http://www.w3.org/1999/xlink" width="11" height="11" viewBox="0.911 0.871 9.394 9.394"><path paint-order="stroke fill markers" fill-rule="evenodd" d="M10.306 5.567a4.697 4.697 0 1 1-9.395 0A4.696 4.696 0 0 1 5.61.871a4.696 4.696 0 0 1 4.696 4.696z"/></svg></svg><svg width="8" height="8" xmlns="http://www.w3.org/2000/svg" xmlns:xlink="http://www.w3.org/1999/xlink" xmlns:svgjs="http://svgjs.com/svgjs" viewBox="0 0 8 7.999" fill="#f25c5c" x="144" y="175"><svg xmlns="http://www.w3.org/2000/svg" xmlns:xlink="http://www.w3.org/1999/xlink" width="8" height="8" viewBox="0.64 0.827 6.975 6.975"><path paint-order="stroke fill markers" fill-rule="evenodd" d="M7.615 4.314a3.488 3.488 0 1 1-6.976 0 3.488 3.488 0 0 1 6.976 0z"/></svg></svg><svg width="6" height="6" xmlns="http://www.w3.org/2000/svg" xmlns:xlink="http://www.w3.org/1999/xlink" xmlns:svgjs="http://svgjs.com/svgjs" viewBox="0.001 0 5.998 6" fill="#f25c5c" x="159" y="180"><svg xmlns="http://www.w3.org/2000/svg" xmlns:xlink="http://www.w3.org/1999/xlink" width="6" height="6" viewBox="0.517 0.204 5.194 5.196"><path paint-order="stroke fill markers" fill-rule="evenodd" d="M5.71 2.802a2.598 2.598 0 1 1-5.194 0 2.598 2.598 0 0 1 5.195 0z"/></svg></svg><svg width="9" height="9" xmlns="http://www.w3.org/2000/svg" xmlns:xlink="http://www.w3.org/1999/xlink" xmlns:svgjs="http://svgjs.com/svgjs" viewBox="0.129 0 8.741 9" fill="#ffe1a4" x="110" y="176"><svg xmlns="http://www.w3.org/2000/svg" xmlns:xlink="http://www.w3.org/1999/xlink" width="9" height="9" viewBox="0.325 0.34 7.927 8.162"><path paint-order="stroke fill markers" fill-rule="evenodd" d="M7.818 6.295L2.366.635C1.91.161.987.292.606.789c-.45.583-.332 1.255.153 1.76 1.816 1.886 3.636 3.773 5.452 5.66.455.472 1.379.342 1.76-.155.449-.583.331-1.255-.153-1.76z"/></svg></svg><svg width="9" height="7" xmlns="http://www.w3.org/2000/svg" xmlns:xlink="http://www.w3.org/1999/xlink" xmlns:svgjs="http://svgjs.com/svgjs" viewBox="0 0.071 9 6.859" fill="#ffe1a4" x="106" y="187"><svg xmlns="http://www.w3.org/2000/svg" xmlns:xlink="http://www.w3.org/1999/xlink" width="9" height="7" viewBox="0.655 0.921 7.481 5.701"><path paint-order="stroke fill markers" fill-rule="evenodd" d="M7.909 1.438a1.278 1.278 0 0 0-1.742-.298L1.179 4.365C.629 4.72.48 5.59.882 6.106a1.276 1.276 0 0 0 1.74.298l4.99-3.225c.548-.355.697-1.224.297-1.741z"/></svg></svg><svg width="5" height="9" xmlns="http://www.w3.org/2000/svg" xmlns:xlink="http://www.w3.org/1999/xlink" xmlns:svgjs="http://svgjs.com/svgjs" viewBox="0.583 0 3.835 9" fill="#ffe1a4" x="121" y="179"><svg xmlns="http://www.w3.org/2000/svg" xmlns:xlink="http://www.w3.org/1999/xlink" width="5" height="9" viewBox="0.288 0.104 3.771 8.851"><path paint-order="stroke fill markers" fill-rule="evenodd" d="M3.034.118C2.356.024 1.717.435 1.581 1.12 1.156 3.243.73 5.365.309 7.486.18 8.128.65 8.851 1.312 8.942c.679.093 1.318-.317 1.454-1.003.424-2.122.847-4.245 1.272-6.367C4.165.932 3.696.21 3.034.118z"/></svg></svg><svg width="8" height="5" xmlns="http://www.w3.org/2000/svg" xmlns:xlink="http://www.w3.org/1999/xlink" xmlns:svgjs="http://svgjs.com/svgjs" viewBox="0 0.537 8 3.926" fill="#ffe1a4" x="127" y="182"><svg xmlns="http://www.w3.org/2000/svg" xmlns:xlink="http://www.w3.org/1999/xlink" width="8" height="5" viewBox="0.015 0.811 7.825 3.84"><path paint-order="stroke fill markers" fill-rule="evenodd" d="M7.761 1.603C7.475.927 6.833.69 6.153.868L.828 2.253c-.634.165-.979 1.03-.734 1.606.285.676.927.913 1.606.736L7.026 3.21c.634-.166.98-1.03.735-1.607z"/></svg></svg><svg width="4" height="9" xmlns="http://www.w3.org/2000/svg" xmlns:xlink="http://www.w3.org/1999/xlink" xmlns:svgjs="http://svgjs.com/svgjs" viewBox="0.387 0 3.226 9" fill="#ffe1a4" x="132" y="163"><svg xmlns="http://www.w3.org/2000/svg" xmlns:xlink="http://www.w3.org/1999/xlink" width="4" height="9" viewBox="0.689 0.688 2.724 7.599"><path paint-order="stroke fill markers" fill-rule="evenodd" d="M3.18 1.832C3.151 1.18 2.478.611 1.828.696A1.278 1.278 0 0 0 .691 2.05l.232 5.093c.03.653.704 1.222 1.353 1.135a1.276 1.276 0 0 0 1.136-1.353L3.18 1.832z"/></svg></svg><svg width="8" height="5" xmlns="http://www.w3.org/2000/svg" xmlns:xlink="http://www.w3.org/1999/xlink" xmlns:svgjs="http://svgjs.com/svgjs" viewBox="0 0.501 8 3.999" fill="#ffe1a4" x="125" y="157"><svg xmlns="http://www.w3.org/2000/svg" xmlns:xlink="http://www.w3.org/1999/xlink" width="8" height="5" viewBox="0.856 0.775 6.67 3.334"><path paint-order="stroke fill markers" fill-rule="evenodd" d="M6.167.793l-4.168.81c-.336.065-.619.17-.847.441-.197.235-.329.603-.288.912.082.614.666 1.27 1.353 1.136l4.167-.81c.336-.066.62-.171.848-.441.197-.236.33-.605.286-.912-.08-.614-.665-1.27-1.351-1.136z"/></svg></svg><svg width="5" height="7" xmlns="http://www.w3.org/2000/svg" xmlns:xlink="http://www.w3.org/1999/xlink" xmlns:svgjs="http://svgjs.com/svgjs" viewBox="0.303 0 4.394 7" fill="#ffe1a4" x="112" y="165"><svg xmlns="http://www.w3.org/2000/svg" xmlns:xlink="http://www.w3.org/1999/xlink" width="5" height="7" viewBox="0.779 0.091 4.091 6.517"><path paint-order="stroke fill markers" fill-rule="evenodd" d="M4.173.196C3.579-.054 2.77.144 2.509.79L.88 4.84c-.244.606-.051 1.392.595 1.665.594.249 1.404.051 1.665-.596L4.768 1.86c.244-.605.052-1.39-.595-1.663z"/></svg></svg><svg width="5" height="9" xmlns="http://www.w3.org/2000/svg" xmlns:xlink="http://www.w3.org/1999/xlink" xmlns:svgjs="http://svgjs.com/svgjs" viewBox="0.579 0 3.842 9" fill="#ffe1a4" x="106" y="199"><svg xmlns="http://www.w3.org/2000/svg" xmlns:xlink="http://www.w3.org/1999/xlink" width="5" height="9" viewBox="0.951 0.111 3.443 8.064"><path paint-order="stroke fill markers" fill-rule="evenodd" d="M3.454 1.257C3.346.614 2.806.027 2.101.12 1.47.204.85.784.964 1.474l.927 5.556c.108.643.648 1.23 1.354 1.135.627-.083 1.249-.662 1.135-1.353-.31-1.851-.617-3.703-.926-5.555z"/></svg></svg><svg width="9" height="5" xmlns="http://www.w3.org/2000/svg" xmlns:xlink="http://www.w3.org/1999/xlink" xmlns:svgjs="http://svgjs.com/svgjs" viewBox="0 0.405 9 4.19" fill="#ffe1a4" x="127" y="197"><svg xmlns="http://www.w3.org/2000/svg" xmlns:xlink="http://www.w3.org/1999/xlink" width="9" height="5" viewBox="0.122 0.556 8.175 3.805"><path paint-order="stroke fill markers" fill-rule="evenodd" d="M6.936.577l-5.67 1.274c-.342.076-.616.163-.85.441-.196.235-.327.603-.287.912.08.598.67 1.289 1.354 1.136 1.89-.424 3.781-.85 5.671-1.273.34-.077.615-.164.849-.442.196-.235.328-.603.286-.912-.08-.597-.67-1.288-1.353-1.136z"/></svg></svg><svg width="4" height="10" xmlns="http://www.w3.org/2000/svg" xmlns:xlink="http://www.w3.org/1999/xlink" xmlns:svgjs="http://svgjs.com/svgjs" viewBox="0 0.01 4 9.979" fill="#ffe1a4" x="138" y="193"><svg xmlns="http://www.w3.org/2000/svg" xmlns:xlink="http://www.w3.org/1999/xlink" width="4" height="10" viewBox="0.085 0.207 3.557 8.875"><path paint-order="stroke fill markers" fill-rule="evenodd" d="M2.587 1.353C2.482.71 1.937.123 1.235.217.604.301-.014.88.098 1.571.447 3.693.793 5.815 1.14 7.937c.105.643.649 1.229 1.354 1.136.63-.084 1.248-.663 1.135-1.354L2.587 1.353z"/></svg></svg><svg width="10" height="5" xmlns="http://www.w3.org/2000/svg" xmlns:xlink="http://www.w3.org/1999/xlink" xmlns:svgjs="http://svgjs.com/svgjs" viewBox="0 0.046 10 4.908" fill="#ffe1a4" x="136" y="205"><svg xmlns="http://www.w3.org/2000/svg" xmlns:xlink="http://www.w3.org/1999/xlink" width="10" height="5" viewBox="0.154 0.039 9.66 4.741"><path paint-order="stroke fill markers" fill-rule="evenodd" d="M8.796 2.284L1.622.076C.996-.116.252.465.168 1.079c-.1.737.332 1.249 1.003 1.456L8.344 4.74c.626.194 1.371-.387 1.455-1.003.102-.736-.332-1.248-1.003-1.454z"/></svg></svg><svg width="6" height="9" xmlns="http://www.w3.org/2000/svg" xmlns:xlink="http://www.w3.org/1999/xlink" xmlns:svgjs="http://svgjs.com/svgjs" viewBox="0.485 0 5.03 9" fill="#ffe1a4" x="153" y="192"><svg xmlns="http://www.w3.org/2000/svg" xmlns:xlink="http://www.w3.org/1999/xlink" width="6" height="9" viewBox="0.891 0.884 4.222 7.555"><path paint-order="stroke fill markers" fill-rule="evenodd" d="M5.042 1.679c-.105-.282-.356-.575-.637-.693C3.84.747 2.965.92 2.74 1.58L1.004 6.673c-.111.33-.166.631-.041.97.105.282.355.575.637.694.566.238 1.439.065 1.663-.595L5 2.649c.111-.33.167-.63.042-.97z"/></svg></svg><svg width="8" height="5" xmlns="http://www.w3.org/2000/svg" xmlns:xlink="http://www.w3.org/1999/xlink" xmlns:svgjs="http://svgjs.com/svgjs" viewBox="0 0.223 8 4.553" fill="#ffe1a4" x="162" y="193"><svg xmlns="http://www.w3.org/2000/svg" xmlns:xlink="http://www.w3.org/1999/xlink" width="8" height="5" viewBox="0.431 0.228 6.655 3.788"><path paint-order="stroke fill markers" fill-rule="evenodd" d="M6.86 2.036c-.21-.273-.463-.406-.792-.506L1.901.256c-.288-.088-.712.043-.947.21-.246.173-.466.49-.508.793-.044.325.003.682.211.948.211.273.463.406.792.507l4.167 1.274c.29.087.714-.043.947-.21.246-.174.467-.491.508-.793.044-.326-.003-.682-.21-.949z"/></svg></svg><svg width="7" height="8" xmlns="http://www.w3.org/2000/svg" xmlns:xlink="http://www.w3.org/1999/xlink" xmlns:svgjs="http://svgjs.com/svgjs" viewBox="0.284 0 6.433 8" fill="#ffe1a4" x="161" y="205"><svg xmlns="http://www.w3.org/2000/svg" xmlns:xlink="http://www.w3.org/1999/xlink" width="7" height="8" viewBox="0.856 0.138 5.623 6.992"><path paint-order="stroke fill markers" fill-rule="evenodd" d="M6.034.42C5.538.04 4.67.002 4.273.576L1.148 5.09C.955 5.368.831 5.65.86 6c.026.305.195.657.442.849.497.38 1.364.418 1.76-.155L6.188 2.18c.191-.28.318-.562.286-.912-.026-.305-.193-.658-.44-.848z"/></svg></svg><svg width="4" height="8" xmlns="http://www.w3.org/2000/svg" xmlns:xlink="http://www.w3.org/1999/xlink" xmlns:svgjs="http://svgjs.com/svgjs" viewBox="0.09 0 3.819 8" fill="#ffe1a4" x="153" y="208"><svg xmlns="http://www.w3.org/2000/svg" xmlns:xlink="http://www.w3.org/1999/xlink" width="4" height="8" viewBox="0.307 0.141 3.623 7.589"><path paint-order="stroke fill markers" fill-rule="evenodd" d="M3.867 6.046L2.71.953C2.646.67 2.32.376 2.073.258c-.28-.131-.68-.163-.97-.04C.81.34.537.553.409.854c-.139.333-.12.623-.041.97l1.158 5.093c.064.282.39.576.636.694.28.132.68.165.97.04.293-.122.568-.335.694-.635.14-.332.12-.623.041-.97z"/></svg></svg><svg width="9" height="4" xmlns="http://www.w3.org/2000/svg" xmlns:xlink="http://www.w3.org/1999/xlink" xmlns:svgjs="http://svgjs.com/svgjs" viewBox="0 0.404 9 3.192" fill="#ffe1a4" x="141" y="213"><svg xmlns="http://www.w3.org/2000/svg" xmlns:xlink="http://www.w3.org/1999/xlink" width="9" height="4" viewBox="0.02 0.038 8.641 3.065"><path paint-order="stroke fill markers" fill-rule="evenodd" d="M7.3.044C5.255.23 3.21.42 1.165.609.514.67-.06 1.292.03 1.963c.089.669.655 1.2 1.352 1.135l6.136-.565c.65-.06 1.225-.682 1.135-1.353C8.564.51 7.998-.021 7.301.044z"/></svg></svg><svg width="8" height="8" xmlns="http://www.w3.org/2000/svg" xmlns:xlink="http://www.w3.org/1999/xlink" xmlns:svgjs="http://svgjs.com/svgjs" viewBox="0 0.508 8 6.983" fill="#ffe1a4" x="142" y="217"><svg xmlns="http://www.w3.org/2000/svg" xmlns:xlink="http://www.w3.org/1999/xlink" width="8" height="8" viewBox="0.296 0.744 7.244 6.323"><path paint-order="stroke fill markers" fill-rule="evenodd" d="M7.31 1.274C6.916.766 6.113.539 5.567.976L.823 4.796c-.509.41-.73 1.186-.299 1.742.395.507 1.197.735 1.742.296a7149.48 7149.48 0 0 0 4.746-3.819c.507-.409.73-1.185.298-1.741z"/></svg></svg><svg width="8" height="7" xmlns="http://www.w3.org/2000/svg" xmlns:xlink="http://www.w3.org/1999/xlink" xmlns:svgjs="http://svgjs.com/svgjs" viewBox="0.617 0 6.765 7" fill="#ffe1a4" x="130" y="216"><svg xmlns="http://www.w3.org/2000/svg" xmlns:xlink="http://www.w3.org/1999/xlink" width="8" height="7" viewBox="0.804 0.154 6.44 6.663"><path paint-order="stroke fill markers" fill-rule="evenodd" d="M6.796 4.611A7484.46 7484.46 0 0 1 2.859.446C2.654.228 2.231.134 1.947.158 1.643.185 1.29.352 1.1.6c-.196.256-.33.58-.287.911.047.35.202.595.441.848L5.19 6.526c.206.217.63.312.912.288.305-.028.658-.194.848-.442.196-.256.331-.58.287-.911-.046-.35-.2-.595-.44-.85z"/></svg></svg><svg width="10" height="4" xmlns="http://www.w3.org/2000/svg" xmlns:xlink="http://www.w3.org/1999/xlink" xmlns:svgjs="http://svgjs.com/svgjs" viewBox="0.032 0 9.937 4" fill="#ffe1a4" x="118" y="215"><svg xmlns="http://www.w3.org/2000/svg" xmlns:xlink="http://www.w3.org/1999/xlink" width="10" height="4" viewBox="0.567 0.23 8.528 3.433"><path paint-order="stroke fill markers" fill-rule="evenodd" d="M7.732.242l-6.02.92C1.069 1.26.485 1.815.578 2.514c.084.636.662 1.241 1.354 1.136l6.018-.92c.645-.099 1.229-.655 1.136-1.353C9 .742 8.425.136 7.732.242z"/></svg></svg><svg width="9" height="6" xmlns="http://www.w3.org/2000/svg" xmlns:xlink="http://www.w3.org/1999/xlink" xmlns:svgjs="http://svgjs.com/svgjs" viewBox="0 0.665 9 4.67" fill="#ffe1a4" x="112" y="209"><svg xmlns="http://www.w3.org/2000/svg" xmlns:xlink="http://www.w3.org/1999/xlink" width="9" height="6" viewBox="0.214 0.81 8.481 4.4"><path paint-order="stroke fill markers" fill-rule="evenodd" d="M7.998 2.863L1.979.897C1.36.697.6.818.314 1.493.08 2.052.246 2.94.91 3.157l6.02 1.964c.619.202 1.378.08 1.663-.595.236-.558.068-1.447-.595-1.663z"/></svg></svg><svg width="5" height="9" xmlns="http://www.w3.org/2000/svg" xmlns:xlink="http://www.w3.org/1999/xlink" xmlns:svgjs="http://svgjs.com/svgjs" viewBox="0.248 0 4.505 9" fill="#ffe1a4" x="153" y="175"><svg xmlns="http://www.w3.org/2000/svg" xmlns:xlink="http://www.w3.org/1999/xlink" width="5" height="9" viewBox="0.764 0.278 4.026 8.042"><path paint-order="stroke fill markers" fill-rule="evenodd" d="M3.755.292C3.038.194 2.483.62 2.3 1.296 1.8 3.148 1.297 5 .796 6.852c-.172.632.372 1.368 1.003 1.454.716.1 1.27-.326 1.455-1.003.5-1.852 1.003-3.704 1.504-5.556.171-.63-.373-1.368-1.003-1.455z"/></svg></svg><svg width="7" height="3" xmlns="http://www.w3.org/2000/svg" xmlns:xlink="http://www.w3.org/1999/xlink" xmlns:svgjs="http://svgjs.com/svgjs" viewBox="0.4 0 6.201 3" fill="#ffe1a4" x="160" y="175"><svg xmlns="http://www.w3.org/2000/svg" xmlns:xlink="http://www.w3.org/1999/xlink" width="7" height="3" viewBox="0.356 0.156 5.845 2.828"><path paint-order="stroke fill markers" fill-rule="evenodd" d="M5.978 1.022C5.787.777 5.505.548 5.184.516L1.828.167c-.338-.035-.664.008-.95.21C.635.551.415.868.373 1.17c-.045.325.002.681.21.948.19.246.473.474.794.507 1.118.116 2.238.231 3.356.348.338.035.664-.007.948-.21.245-.172.464-.49.507-.793.043-.325-.003-.681-.21-.948z"/></svg></svg><svg width="4" height="7" xmlns="http://www.w3.org/2000/svg" xmlns:xlink="http://www.w3.org/1999/xlink" xmlns:svgjs="http://svgjs.com/svgjs" viewBox="0.364 0 3.272 7" fill="#ffe1a4" x="159" y="167"><svg xmlns="http://www.w3.org/2000/svg" xmlns:xlink="http://www.w3.org/1999/xlink" width="4" height="7" viewBox="0.917 0.174 3.055 6.535"><path paint-order="stroke fill markers" fill-rule="evenodd" d="M2.956.186C2.308.097 1.599.497 1.5 1.19c-.19 1.352-.38 2.703-.572 4.053-.09.646.317 1.36 1.004 1.454.647.09 1.358-.31 1.454-1.003.191-1.35.38-2.7.572-4.052C4.049.995 3.643.28 2.956.186z"/></svg></svg><svg width="39" height="39" xmlns="http://www.w3.org/2000/svg" xmlns:xlink="http://www.w3.org/1999/xlink" xmlns:svgjs="http://svgjs.com/svgjs" viewBox="121 258 39 39" x="121" y="258"><svg width="39" height="39" xmlns="http://www.w3.org/2000/svg" xmlns:xlink="http://www.w3.org/1999/xlink" xmlns:svgjs="http://svgjs.com/svgjs" viewBox="121 258 39 39" x="121" y="258"><svg width="39" height="39" xmlns="http://www.w3.org/2000/svg" xmlns:xlink="http://www.w3.org/1999/xlink" xmlns:svgjs="http://svgjs.com/svgjs" viewBox="121 258 39 39" x="121" y="258"><svg width="39" height="39" xmlns="http://www.w3.org/2000/svg" xmlns:xlink="http://www.w3.org/1999/xlink" xmlns:svgjs="http://svgjs.com/svgjs" fill="#fc6011" x="121" y="258"><svg xmlns="http://www.w3.org/2000/svg" xmlns:xlink="http://www.w3.org/1999/xlink" width="39" height="39" viewBox="0.102 0.454 38.31 38.31"><path paint-order="stroke fill markers" fill-rule="evenodd" d="M31.054 38.764H7.462c-4.048 0-7.36-3.312-7.36-7.36V7.815c0-4.048 3.312-7.36 7.36-7.36h23.592c4.048 0 7.358 3.312 7.358 7.36v23.59c0 4.048-3.31 7.36-7.358 7.36z"/></svg></svg></svg></svg></svg><svg width="5" height="7" xmlns="http://www.w3.org/2000/svg" xmlns:xlink="http://www.w3.org/1999/xlink" xmlns:svgjs="http://svgjs.com/svgjs" viewBox="0 0.338 5 6.324" fill="#ffe1a4" x="144" y="158"><svg xmlns="http://www.w3.org/2000/svg" xmlns:xlink="http://www.w3.org/1999/xlink" width="5" height="7" viewBox="0.391 0.833 4.442 5.618"><path paint-order="stroke fill markers" fill-rule="evenodd" d="M4.616 4.482L2.648 1.357C2.3.803 1.42.662.906 1.06c-.558.433-.67 1.149-.297 1.742l1.967 3.124c.349.555 1.23.696 1.742.298.558-.433.671-1.148.298-1.742z"/></svg></svg><svg width="7" height="7" xmlns="http://www.w3.org/2000/svg" xmlns:xlink="http://www.w3.org/1999/xlink" xmlns:svgjs="http://svgjs.com/svgjs" viewBox="0.453 0 6.094 7" fill="#ffe1a4" x="142" y="166"><svg xmlns="http://www.w3.org/2000/svg" width="7" height="7" viewBox="0.748 0.476 5.271 6.054"><path paint-order="stroke fill markers" fill-rule="evenodd" d="M5.583.758C5.06.357 4.253.363 3.822.912c-.93 1.193-1.861 2.385-2.793 3.577-.401.515-.393 1.339.155 1.76.522.4 1.33.395 1.76-.154.93-1.193 1.862-2.385 2.793-3.577.402-.515.394-1.34-.154-1.76z"/></svg></svg></svg>