<svg width="176" height="163" viewBox="0 0 176 163" fill="none" xmlns="http://www.w3.org/2000/svg">
    <rect x="21.5449" y="56" width="57.8477" height="5.36731" rx="2.68366" fill="#F88922" />
    <rect x="0.0761719" y="76.2766" width="57.8477" height="5.36731" rx="2.68366" fill="#F88922" />
    <rect x="11.4072" y="66.1383" width="57.8477" height="5.36731" rx="2.68366" fill="#F88922" />
    <path d="M110.147 121V108.616H117.851V110.056H111.695V114.304H117.167V115.762H111.695V121H110.147ZM126.625 121.144C124.981 121.144 123.817 120.982 123.133 120.658C122.449 120.334 122.011 119.77 121.819 118.966C121.639 118.15 121.549 116.764 121.549 114.808C121.549 112.852 121.639 111.472 121.819 110.668C122.011 109.852 122.449 109.282 123.133 108.958C123.817 108.634 124.981 108.472 126.625 108.472C128.257 108.472 129.415 108.634 130.099 108.958C130.795 109.282 131.233 109.852 131.413 110.668C131.605 111.472 131.701 112.852 131.701 114.808C131.701 116.764 131.605 118.15 131.413 118.966C131.233 119.77 130.795 120.334 130.099 120.658C129.415 120.982 128.257 121.144 126.625 121.144ZM126.625 119.704C127.849 119.704 128.677 119.626 129.109 119.47C129.541 119.314 129.823 118.924 129.955 118.3C130.087 117.676 130.153 116.512 130.153 114.808C130.153 113.104 130.087 111.94 129.955 111.316C129.823 110.692 129.541 110.302 129.109 110.146C128.677 109.99 127.849 109.912 126.625 109.912C125.401 109.912 124.567 109.99 124.123 110.146C123.691 110.302 123.409 110.692 123.277 111.316C123.145 111.94 123.079 113.104 123.079 114.808C123.079 116.512 123.145 117.676 123.277 118.3C123.409 118.924 123.691 119.314 124.123 119.47C124.567 119.626 125.401 119.704 126.625 119.704ZM141.165 121.144C139.521 121.144 138.357 120.982 137.673 120.658C136.989 120.334 136.551 119.77 136.359 118.966C136.179 118.15 136.089 116.764 136.089 114.808C136.089 112.852 136.179 111.472 136.359 110.668C136.551 109.852 136.989 109.282 137.673 108.958C138.357 108.634 139.521 108.472 141.165 108.472C142.797 108.472 143.955 108.634 144.639 108.958C145.335 109.282 145.773 109.852 145.953 110.668C146.145 111.472 146.241 112.852 146.241 114.808C146.241 116.764 146.145 118.15 145.953 118.966C145.773 119.77 145.335 120.334 144.639 120.658C143.955 120.982 142.797 121.144 141.165 121.144ZM141.165 119.704C142.389 119.704 143.217 119.626 143.649 119.47C144.081 119.314 144.363 118.924 144.495 118.3C144.627 117.676 144.693 116.512 144.693 114.808C144.693 113.104 144.627 111.94 144.495 111.316C144.363 110.692 144.081 110.302 143.649 110.146C143.217 109.99 142.389 109.912 141.165 109.912C139.941 109.912 139.107 109.99 138.663 110.146C138.231 110.302 137.949 110.692 137.817 111.316C137.685 111.94 137.619 113.104 137.619 114.808C137.619 116.512 137.685 117.676 137.817 118.3C137.949 118.924 138.231 119.314 138.663 119.47C139.107 119.626 139.941 119.704 141.165 119.704ZM151.043 108.616H154.985C156.701 108.616 157.913 108.772 158.621 109.084C159.329 109.384 159.779 109.93 159.971 110.722C160.163 111.514 160.259 112.876 160.259 114.808C160.259 116.74 160.163 118.102 159.971 118.894C159.779 119.686 159.329 120.238 158.621 120.55C157.913 120.85 156.701 121 154.985 121H151.043V108.616ZM154.733 119.56C156.137 119.56 157.079 119.488 157.559 119.344C158.051 119.188 158.369 118.816 158.513 118.228C158.657 117.628 158.729 116.488 158.729 114.808C158.729 113.14 158.651 112.006 158.495 111.406C158.351 110.806 158.033 110.434 157.541 110.29C157.061 110.134 156.125 110.056 154.733 110.056H152.591V119.56H154.733Z" fill="#6C2C00" />
    <path d="M37.2921 115.708V114.286H41.5761V120.784C40.9881 120.892 40.3221 120.976 39.5781 121.036C38.8461 121.108 38.1981 121.144 37.6341 121.144C36.1221 121.144 35.0001 120.982 34.2681 120.658C33.5481 120.322 33.0501 119.722 32.7741 118.858C32.5101 117.982 32.3781 116.632 32.3781 114.808C32.3781 112.996 32.5161 111.652 32.7921 110.776C33.0681 109.9 33.5661 109.3 34.2861 108.976C35.0181 108.64 36.1341 108.472 37.6341 108.472C38.2221 108.472 38.8761 108.508 39.5961 108.58C40.3281 108.652 40.9701 108.736 41.5221 108.832V110.2C40.1541 110.008 39.1101 109.912 38.3901 109.912C36.9621 109.912 35.9661 109.99 35.4021 110.146C34.8501 110.302 34.4601 110.71 34.2321 111.37C34.0161 112.03 33.9081 113.176 33.9081 114.808C33.9081 116.32 33.9921 117.406 34.1601 118.066C34.3281 118.726 34.6641 119.17 35.1681 119.398C35.6721 119.626 36.5001 119.74 37.6521 119.74C38.0121 119.74 38.4321 119.728 38.9121 119.704C39.3921 119.668 39.7821 119.632 40.0821 119.596V115.708H37.2921ZM54.2617 121L52.3357 116.14H52.0297H48.1417V121H46.5937V108.616H52.2817C53.2657 108.616 54.0097 108.772 54.5137 109.084C55.0177 109.396 55.3477 109.816 55.5037 110.344C55.6597 110.872 55.7377 111.55 55.7377 112.378C55.7377 113.23 55.6117 113.974 55.3597 114.61C55.1077 115.234 54.5917 115.66 53.8117 115.888L55.9177 121H54.2617ZM51.6337 114.7C52.4017 114.7 52.9657 114.622 53.3257 114.466C53.6977 114.298 53.9317 114.058 54.0277 113.746C54.1357 113.434 54.1897 112.978 54.1897 112.378C54.1897 111.766 54.1417 111.304 54.0457 110.992C53.9497 110.68 53.7277 110.446 53.3797 110.29C53.0437 110.134 52.5037 110.056 51.7597 110.056H48.1417V114.7H51.6337ZM60.4832 121V108.616H62.0312V121H60.4832ZM69.9176 121V110.11H65.9936V108.616H75.3716V110.11H71.4656V121H69.9176ZM78.5222 121V119.632L85.5062 110.056H78.7202V108.616H87.4682V109.948L80.4482 119.56H87.5582V121H78.5222ZM100.31 121L99.0318 117.706H93.4518L92.1738 121H90.6078L95.2878 108.616H97.2318L101.912 121H100.31ZM96.2778 110.29H96.1878L93.9198 116.248H98.5458L96.2778 110.29Z" fill="#F88922" />
    <g filter="url(#filter0_d_413:259)">
        <path d="M156.999 91.8273C162.522 91.8273 167.072 87.3277 166.292 81.8603C164.148 66.8469 157.2 52.8257 146.351 41.9765C133.129 28.7553 115.197 21.3276 96.4997 21.3276C77.802 21.3276 59.8701 28.7553 46.6489 41.9765C35.7997 52.8257 28.8517 66.8469 26.7078 81.8603C25.9271 87.3277 30.4772 91.8273 36 91.8273L96.4997 91.8273H156.999Z" fill="#6C2C00" />
    </g>
    <circle cx="96.4993" cy="8.88652" r="8.88652" fill="#6C2C00" />
    <path d="M48.0263 51.8389C36.0886 57.3979 33.888 71.7511 34.2798 78.2328C36.2289 80.3171 39.4179 79.5015 40.7688 78.8332C36.6693 66.5546 43.899 55.7209 48.0263 51.8389Z" fill="white" />
    <defs>
        <filter id="filter0_d_413:259" x="22.6201" y="21.3276" width="147.759" height="78.4997" filterUnits="userSpaceOnUse" color-interpolation-filters="sRGB">
            <feFlood flood-opacity="0" result="BackgroundImageFix" />
            <feColorMatrix in="SourceAlpha" type="matrix" values="0 0 0 0 0 0 0 0 0 0 0 0 0 0 0 0 0 0 127 0" result="hardAlpha" />
            <feOffset dy="4" />
            <feGaussianBlur stdDeviation="2" />
            <feComposite in2="hardAlpha" operator="out" />
            <feColorMatrix type="matrix" values="0 0 0 0 0 0 0 0 0 0 0 0 0 0 0 0 0 0 0.25 0" />
            <feBlend mode="normal" in2="BackgroundImageFix" result="effect1_dropShadow_413:259" />
            <feBlend mode="normal" in="SourceGraphic" in2="effect1_dropShadow_413:259" result="shape" />
        </filter>
    </defs>
</svg>
    