<svg width="23" height="24" viewBox="0 0 23 24" fill="none" xmlns="http://www.w3.org/2000/svg">
    <path d="M8.30403 21.5926V18.3124C8.30402 17.4812 8.98947 16.8059 9.8385 16.8006H12.956C13.8088 16.8006 14.5002 17.4775 14.5002 18.3124V18.3124V21.5831C14.5002 22.304 15.0943 22.89 15.8307 22.8952H17.9576C18.9509 22.8977 19.9045 22.5132 20.6078 21.8264C21.3111 21.1396 21.7063 20.2071 21.7063 19.2347V9.91694C21.7063 9.13139 21.3506 8.38625 20.7352 7.88226L13.5096 2.22508C12.2465 1.23558 10.4426 1.26754 9.21694 2.30114L2.14675 7.88226C1.50217 8.3714 1.11691 9.11874 1.09787 9.91694V19.2251C1.09787 21.2521 2.77625 22.8952 4.84663 22.8952H6.92496C7.27951 22.8977 7.62043 22.7616 7.87206 22.517C8.12368 22.2725 8.2652 21.9397 8.26519 21.5926H8.30403Z" stroke="#AAACAE" stroke-width="1.5" />
</svg>
    