<svg width="22" height="22" viewBox="0 0 22 22" fill="none" xmlns="http://www.w3.org/2000/svg">
    <path d="M1 1L3.25609 1.38504L4.30061 13.6562C4.38413 14.6584 5.23342 15.4274 6.25299 15.4242H18.0855C19.0585 15.4263 19.8839 14.7204 20.0216 13.7706L21.051 6.7564C21.1659 5.97241 20.6139 5.24511 19.8199 5.13173C19.7505 5.12211 3.61836 5.11676 3.61836 5.11676" stroke="#AAACAE" stroke-width="1.5" stroke-linecap="round" stroke-linejoin="round" />
    <path d="M13.338 9.0697H16.3457" stroke="#AAACAE" stroke-width="1.5" stroke-linecap="round" stroke-linejoin="round" />
    <path fill-rule="evenodd" clip-rule="evenodd" d="M5.77713 19.1318C6.10361 19.1318 6.36718 19.3928 6.36718 19.7137C6.36718 20.0356 6.10361 20.2966 5.77713 20.2966C5.45064 20.2966 5.18707 20.0356 5.18707 19.7137C5.18707 19.3928 5.45064 19.1318 5.77713 19.1318Z" fill="#FEC630" stroke="#AAACAE" stroke-width="1.5" stroke-linecap="round" stroke-linejoin="round" />
    <path fill-rule="evenodd" clip-rule="evenodd" d="M18.0124 19.1318C18.3389 19.1318 18.6036 19.3928 18.6036 19.7137C18.6036 20.0356 18.3389 20.2966 18.0124 20.2966C17.6859 20.2966 17.4224 20.0356 17.4224 19.7137C17.4224 19.3928 17.6859 19.1318 18.0124 19.1318Z" fill="#FEC630" stroke="#AAACAE" stroke-width="1.5" stroke-linecap="round" stroke-linejoin="round" />
</svg>
    