<svg width="18" height="18" viewBox="0 0 18 18" fill="none" xmlns="http://www.w3.org/2000/svg">
    <path d="M15.6012 14.8931L11.5347 10.8917C12.5996 9.73479 13.2539 8.20472 13.2539 6.52104C13.2534 2.91934 10.2867 0 6.62686 0C2.96701 0 0.000331879 2.91934 0.000331879 6.52104C0.000331879 10.1227 2.96701 13.0421 6.62686 13.0421C8.20817 13.0421 9.65852 12.4951 10.7977 11.5858L14.88 15.603C15.0789 15.799 15.4018 15.799 15.6007 15.603C15.8001 15.4071 15.8001 15.0891 15.6012 14.8931ZM6.62686 12.0388C3.53023 12.0388 1.01992 9.56841 1.01992 6.52104C1.01992 3.47367 3.53023 1.0033 6.62686 1.0033C9.72353 1.0033 12.2338 3.47367 12.2338 6.52104C12.2338 9.56841 9.72353 12.0388 6.62686 12.0388Z" fill="#6C2C00" />
</svg>
    